<svg xmlns="http://www.w3.org/2000/svg" viewBox="0 0 2732 2732" width="2732" height="2732">
  <rect width="2732" height="2732" fill="#0f1117"/>
  <g transform="translate(1116,1016)">
    <path fill="#ffffff" d="M250 0C108 0 0 108 0 250v320c0 28 34 42 54 22l58-58 60 60c14 14 36 14 50 0l60-60 60 60c14 14 36 14 50 0l60-60 58 58c20 20 54 6 54-22V250C500 108 392 0 250 0z"/>
    <circle cx="166" cy="260" r="48" fill="#3b82f6"/>
    <circle cx="334" cy="260" r="48" fill="#3b82f6"/>
    <circle cx="250" cy="390" r="32" fill="#a855f7"/>
  </g>
  <text x="1366" y="1850" font-family="system-ui,sans-serif" font-size="120" fill="#e8eaed" text-anchor="middle" font-weight="700">Servicio Ghost</text>
</svg>
