<svg xmlns="http://www.w3.org/2000/svg" viewBox="0 0 512 512" width="512" height="512">
  <defs>
    <linearGradient id="g" x1="0" y1="0" x2="1" y2="1">
      <stop offset="0" stop-color="#3b82f6"/>
      <stop offset="1" stop-color="#a855f7"/>
    </linearGradient>
  </defs>
  <rect width="512" height="512" rx="96" fill="url(#g)"/>
  <!-- Ghost body -->
  <path fill="#ffffff" d="M256 96c-71 0-128 57-128 128v160c0 14 17 21 27 11l29-29 30 30c7 7 18 7 25 0l30-30 30 30c7 7 18 7 25 0l30-30 29 29c10 10 27 3 27-11V224c0-71-57-128-128-128z"/>
  <!-- Eyes -->
  <circle cx="214" cy="226" r="24" fill="#3b82f6"/>
  <circle cx="298" cy="226" r="24" fill="#3b82f6"/>
  <!-- Mouth -->
  <circle cx="256" cy="290" r="16" fill="#a855f7"/>
</svg>
