<svg xmlns="http://www.w3.org/2000/svg" viewBox="0 0 512 512" width="512" height="512">
  <defs>
    <linearGradient id="bg" x1="0" y1="0" x2="1" y2="1">
      <stop offset="0" stop-color="#15131a"/>
      <stop offset="1" stop-color="#000000"/>
    </linearGradient>
    <linearGradient id="gold" x1="0" y1="0" x2="0" y2="1">
      <stop offset="0" stop-color="#fbeeb6"/>
      <stop offset="0.55" stop-color="#d4af37"/>
      <stop offset="1" stop-color="#a9742f"/>
    </linearGradient>
  </defs>
  <rect width="512" height="512" rx="96" fill="url(#bg)"/>
  <circle cx="256" cy="256" r="182" fill="none" stroke="#d4af37" stroke-width="4" opacity="0.5"/>
  <path fill="url(#gold)" d="M256 116c-69 0-125 56-125 125v150c0 13 16 20 25 11l27-27 28 28c7 7 18 7 24 0l28-28 28 28c7 7 18 7 24 0l28-28 27 27c9 9 25 2 25-11V241c0-69-56-125-125-125z"/>
  <circle cx="215" cy="243" r="22" fill="#15131a"/>
  <circle cx="297" cy="243" r="22" fill="#15131a"/>
  <circle cx="256" cy="305" r="15" fill="#15131a"/>
</svg>
