<svg xmlns="http://www.w3.org/2000/svg" viewBox="0 0 1024 1024" width="1024" height="1024">
  <defs>
    <linearGradient id="bg" x1="0" y1="0" x2="1" y2="1">
      <stop offset="0" stop-color="#15131a"/>
      <stop offset="1" stop-color="#000000"/>
    </linearGradient>
    <linearGradient id="gold" x1="0" y1="0" x2="0" y2="1">
      <stop offset="0" stop-color="#fbeeb6"/>
      <stop offset="0.55" stop-color="#d4af37"/>
      <stop offset="1" stop-color="#a9742f"/>
    </linearGradient>
  </defs>
  <rect width="1024" height="1024" fill="url(#bg)"/>
  <circle cx="512" cy="512" r="360" fill="none" stroke="#d4af37" stroke-width="6" opacity="0.5"/>
  <path fill="url(#gold)" d="M512 230c-138 0-250 112-250 250v300c0 26 31 39 50 21l54-54 56 56c13 13 35 13 48 0l56-56 56 56c13 13 35 13 48 0l56-56 54 54c19 18 50 5 50-21V480c0-138-112-250-250-250z"/>
  <circle cx="430" cy="485" r="44" fill="#15131a"/>
  <circle cx="594" cy="485" r="44" fill="#15131a"/>
  <circle cx="512" cy="610" r="30" fill="#15131a"/>
</svg>
